<?xml version="1.0" standalone="no"?>
<svg viewBox="0 0 200 200" xmlns="http://www.w3.org/2000/svg">
  <path fill="#9EF0F0" d="M44.9,-55.9C60.4,-50.5,76.8,-40.4,80.7,-26.7C84.5,-12.9,75.9,4.5,67.1,18.8C58.3,33.2,49.4,44.5,38.2,57.3C27,70.1,13.5,84.3,-0.6,85.2C-14.8,86.1,-29.6,73.6,-43.1,61.6C-56.6,49.5,-68.7,37.9,-74.1,23.6C-79.5,9.2,-78.1,-7.9,-72.6,-23.2C-67.1,-38.6,-57.6,-52.3,-44.8,-58.6C-32,-64.9,-16,-63.7,-0.6,-62.8C14.7,-61.9,29.4,-61.3,44.9,-55.9Z" transform="translate(100 100)" />
</svg>
